# xmcd CD database file generated by Grip 3.0.0
# 
# Track frame offsets:
#       150
#       18632
#       37079
#       58553
#       74273
#       93465
#       118429
#       133046
#       148746
#       176600
#       197655
# 
# Disc length: 2917 seconds
# 
# Revision: 4
# Processed by: cddbd v1.4PL0 Copyright (c) Steve Scherf et al.
# Submitted via: Grip 3.0.0
# 
DISCID=aa0b630b
DTITLE=Lenine - Na Pressao
DYEAR=1900
DGENRE=Samba
TTITLE0=Soul Brasileiro
TTITLE1=Na Pressao
TTITLE2=Pacienca
TTITLE3=Meuamanha (Intuindootil)
TTITLE4=A Rede
TTITLE5=Tubi Tupy
TTITLE6=A Medidada Paixao
TTITLE7=Alziraea Torre
TTITLE8=Ruada Passagem (Transito)
TTITLE9=Relampiano
TTITLE10=Eu Sou Meu Guia
EXTD=
EXTT0=
EXTT1=
EXTT2=
EXTT3=
EXTT4=
EXTT5=
EXTT6=
EXTT7=
EXTT8=
EXTT9=
EXTT10=
PLAYORDER=
